<svg width="77" height="30" viewBox="0 0 77 30" fill="none" xmlns="http://www.w3.org/2000/svg">
<rect width="77" height="30" fill="white"/>
<path d="M32.3125 11.324H37.9525V12.44H33.4765V15.08H37.4725V16.196H33.4765V18.884H38.1205V20H32.3125V11.324ZM39.4206 11.324H40.8966L46.5486 20H45.0606L39.4206 11.324ZM39.3006 20L42.3126 15.284L42.8766 16.412L40.7406 20H39.3006ZM42.9126 14.864L45.0246 11.324H46.4286L43.5366 15.836L42.9126 14.864ZM48.2031 11.324H49.3671V20H48.2031V11.324ZM54.1633 11.324C54.6033 11.324 55.0073 11.384 55.3753 11.504C55.7513 11.616 56.0753 11.788 56.3473 12.02C56.6273 12.244 56.8433 12.524 56.9953 12.86C57.1553 13.188 57.2353 13.572 57.2353 14.012C57.2353 14.356 57.1833 14.692 57.0793 15.02C56.9833 15.348 56.8193 15.648 56.5873 15.92C56.3553 16.184 56.0513 16.4 55.6753 16.568C55.3073 16.728 54.8513 16.808 54.3073 16.808H53.0233V20H51.8593V11.324H54.1633ZM54.2833 15.692C54.6273 15.692 54.9113 15.64 55.1353 15.536C55.3673 15.432 55.5473 15.3 55.6753 15.14C55.8033 14.972 55.8953 14.792 55.9513 14.6C56.0073 14.408 56.0353 14.228 56.0353 14.06C56.0353 13.884 56.0033 13.704 55.9393 13.52C55.8833 13.328 55.7873 13.152 55.6513 12.992C55.5233 12.832 55.3513 12.7 55.1353 12.596C54.9273 12.492 54.6713 12.44 54.3673 12.44H53.0233V15.692H54.2833ZM55.7113 16.352L57.9793 20H56.6353L54.3313 16.388L55.7113 16.352ZM58.9055 20L62.6975 10.964H62.7695L66.5495 20H65.2175L62.3855 12.788L63.2135 12.248L60.0455 20H58.9055ZM61.1255 16.712H64.3535L64.7375 17.72H60.7895L61.1255 16.712Z" fill="black"/>
<circle cx="15.5" cy="15.5" r="7.5" fill="#C9C9C9"/>
<circle cx="20.3506" cy="15.5" r="6.5" fill="white" stroke="black" stroke-width="2"/>
</svg>
